# xmcd
#
# Track frame offsets:
#	150
#	21846
#	53030
#	78575
#	99829
#	120048
#	144090
#	168582
#
# Disc length: 2418 seconds
#
# Revision: 0
# Processed by: cddbd v1.5.1PL2 Copyright (c) Steve Scherf et al.
# Submitted via: EasyCDDAExtractor 8.2.3.1
#
DISCID=53097008
DTITLE=Edy Ribey - Meu Lugar
DYEAR=1900
DGENRE=
TTITLE0=HISTÓRIA MAL CONTADA
TTITLE1=POR UM FIO
TTITLE2=É BOM DEMAIS
TTITLE3=O ESPECIALISTA
TTITLE4=TÃO NATURAL
TTITLE5=QUE AMOR É ESSE
TTITLE6=MEU LUGAR
TTITLE7=BOMBA DE HOMEM
EXTD=
EXTT0=
EXTT1=
EXTT2=
EXTT3=
EXTT4=
EXTT5=
EXTT6=
EXTT7=
PLAYORDER=
